<svg width="18" height="18" viewBox="0 0 18 18" fill="none" xmlns="http://www.w3.org/2000/svg">
<path d="M8.99999 12C8.40665 12 7.82663 11.824 7.33328 11.4944C6.83994 11.1647 6.45542 10.6962 6.22836 10.148C6.0013 9.59986 5.94189 8.99666 6.05764 8.41472C6.1734 7.83278 6.45912 7.29823 6.87868 6.87868C7.29823 6.45912 7.83278 6.1734 8.41472 6.05764C8.99666 5.94189 9.59986 6.0013 10.148 6.22836C10.6962 6.45542 11.1647 6.83994 11.4944 7.33328C11.824 7.82663 12 8.40665 12 8.99999C11.9991 9.79537 11.6828 10.5579 11.1204 11.1204C10.5579 11.6828 9.79537 11.9991 8.99999 12ZM8.99999 7.49998C8.70331 7.49998 8.4133 7.58795 8.16663 7.75277C7.91995 7.9176 7.72769 8.15187 7.61416 8.42596C7.50063 8.70005 7.47092 9.00165 7.5288 9.29263C7.58668 9.5836 7.72954 9.85088 7.93932 10.0607C8.1491 10.2704 8.41638 10.4133 8.70735 10.4712C8.99832 10.5291 9.29993 10.4994 9.57402 10.3858C9.84811 10.2723 10.0824 10.08 10.2472 9.83335C10.412 9.58668 10.5 9.29666 10.5 8.99999C10.4995 8.6023 10.3414 8.22103 10.0602 7.93982C9.77894 7.65862 9.39768 7.50043 8.99999 7.49998ZM9.375 16.5H8.62498C8.12786 16.4995 7.65125 16.3017 7.29974 15.9502C6.94822 15.5987 6.75051 15.1221 6.74999 14.625C6.75154 14.6076 6.74741 14.5903 6.73823 14.5755C6.72905 14.5607 6.71531 14.5493 6.69908 14.543C6.66234 14.525 6.61963 14.5641 6.61963 14.5641C6.26774 14.9167 5.79037 15.1154 5.29219 15.1167C4.794 15.1179 4.31566 14.9215 3.96203 14.5706L3.43247 14.0405C3.25807 13.8661 3.1198 13.659 3.02561 13.431C2.93141 13.203 2.88313 12.9587 2.88354 12.7121C2.88395 12.4654 2.93304 12.2213 3.02799 11.9936C3.12294 11.766 3.26188 11.5593 3.43686 11.3855C3.44916 11.3739 3.45732 11.3586 3.4601 11.3419C3.46288 11.3253 3.46013 11.3081 3.45226 11.2932C3.44369 11.2804 3.43223 11.2698 3.4188 11.2623C3.40537 11.2548 3.39036 11.2506 3.37499 11.25C2.87787 11.2495 2.40126 11.0518 2.04975 10.7002C1.69823 10.3487 1.50052 9.87212 1.5 9.375V8.62498C1.50052 8.12786 1.69823 7.65125 2.04975 7.29974C2.40126 6.94822 2.87787 6.75051 3.37499 6.74999C3.3918 6.75086 3.40849 6.74674 3.42295 6.73813C3.43742 6.72953 3.44901 6.71684 3.45627 6.70165C3.4625 6.68859 3.46427 6.67384 3.4613 6.65968C3.45832 6.64552 3.45078 6.63273 3.43982 6.62329C3.26425 6.44925 3.12472 6.2423 3.02921 6.01429C2.9337 5.78627 2.88409 5.54166 2.8832 5.29446C2.88232 5.04725 2.93018 4.80229 3.02406 4.5736C3.11793 4.34491 3.25597 4.13697 3.43029 3.96168L3.96115 3.4299C4.31335 3.07939 4.78998 2.88256 5.28687 2.88243C5.78376 2.8823 6.2605 3.07888 6.61288 3.4292C6.6422 3.45848 6.66505 3.47139 6.70699 3.45335C6.74893 3.43532 6.74999 3.37499 6.74999 3.37499C6.75051 2.87787 6.94822 2.40126 7.29974 2.04975C7.65125 1.69823 8.12786 1.50052 8.62498 1.5H9.375C9.87212 1.50052 10.3487 1.69823 10.7002 2.04975C11.0518 2.40126 11.2495 2.87787 11.25 3.37499C11.25 3.37499 11.246 3.44955 11.2872 3.46499C11.3024 3.46974 11.3185 3.47049 11.3341 3.46717C11.3496 3.46385 11.364 3.45657 11.376 3.44604C11.5499 3.26801 11.7576 3.12654 11.987 3.02994C12.2163 2.93335 12.4627 2.88357 12.7115 2.88354H12.7148C12.9612 2.88286 13.2053 2.93106 13.4329 3.02535C13.6605 3.11964 13.8672 3.25815 14.0409 3.43286L14.5697 3.96168C14.9208 4.31354 15.1179 4.7903 15.1179 5.28735C15.1179 5.7844 14.9208 6.26115 14.5697 6.61302C14.5591 6.62824 14.5158 6.66108 14.5326 6.70559C14.5373 6.72031 14.547 6.73289 14.5601 6.74103C14.5733 6.74918 14.5889 6.75236 14.6041 6.74999C14.8518 6.7481 15.0975 6.79515 15.327 6.88845C15.5565 6.98175 15.7654 7.11946 15.9415 7.29367C16.1177 7.46788 16.2577 7.67517 16.3535 7.90363C16.4493 8.13209 16.4991 8.37723 16.5 8.62498V9.375C16.4995 9.87212 16.3017 10.3487 15.9502 10.7002C15.5987 11.0518 15.1221 11.2495 14.625 11.25C14.58 11.2515 14.5395 11.2532 14.5256 11.2868C14.5109 11.3219 14.5182 11.3471 14.5554 11.3774C14.7322 11.5509 14.8728 11.7576 14.9692 11.9857C15.0656 12.2139 15.1158 12.4588 15.1169 12.7065C15.118 12.9541 15.07 13.1995 14.9757 13.4285C14.8814 13.6575 14.7427 13.8655 14.5675 14.0405L14.0387 14.5701C13.6865 14.9206 13.2099 15.1174 12.713 15.1175C12.2161 15.1177 11.7393 14.9211 11.387 14.5708C11.3859 14.5708 11.3453 14.52 11.3035 14.5353C11.2886 14.5398 11.2755 14.5488 11.2659 14.5611C11.2563 14.5734 11.2508 14.5883 11.25 14.6039C11.2519 14.8517 11.2049 15.0973 11.1116 15.3269C11.0183 15.5564 10.8806 15.7652 10.7064 15.9414C10.5321 16.1176 10.3249 16.2576 10.0964 16.3535C9.86791 16.4493 9.62276 16.4991 9.375 16.5ZM7.25353 13.1492L7.28647 13.1623C7.57019 13.2824 7.81259 13.4828 7.9838 13.739C8.15501 13.9951 8.24754 14.2957 8.25 14.6038C8.25 14.8315 8.41808 15 8.62498 15H9.375C9.47441 14.9999 9.56971 14.9603 9.64001 14.89C9.7103 14.8197 9.74985 14.7244 9.74998 14.625C9.75015 14.3102 9.84357 14.0025 10.0184 13.7408C10.1933 13.479 10.4418 13.275 10.7325 13.1543C11.0174 13.0367 11.3307 13.0061 11.633 13.0664C11.9353 13.1266 12.2129 13.2749 12.431 13.4927C12.5932 13.6553 12.8313 13.656 12.9781 13.5088L13.5066 12.98C13.5415 12.9451 13.5693 12.9038 13.5882 12.8582C13.6071 12.8126 13.6168 12.7638 13.6167 12.7144C13.6167 12.6651 13.6069 12.6163 13.588 12.5707C13.569 12.5252 13.5412 12.4839 13.5062 12.4491C13.2889 12.2308 13.1396 11.9541 13.0763 11.6527C13.013 11.3513 13.0384 11.0379 13.1495 10.7506C13.1539 10.7389 13.1583 10.7272 13.1636 10.7155C13.1651 10.712 13.1665 10.7081 13.168 10.7052C13.2866 10.4218 13.4864 10.1799 13.7423 10.0099C13.9982 9.83994 14.2987 9.74955 14.6059 9.75012C14.8322 9.75012 15.0003 9.58168 15.0003 9.37514V8.62498C15.0001 8.52551 14.9605 8.43017 14.8902 8.35987C14.8198 8.28957 14.7245 8.25006 14.625 8.25C14.3121 8.25346 14.0054 8.16306 13.7444 7.99046C13.4834 7.81786 13.2802 7.57099 13.1609 7.28173C13.1557 7.26928 13.1506 7.25757 13.1466 7.24731C13.0328 6.96427 13.0051 6.65395 13.0668 6.35521C13.1286 6.05648 13.2771 5.78259 13.4938 5.56786C13.6553 5.40614 13.6553 5.1687 13.5091 5.0222L12.9803 4.49338C12.9454 4.4585 12.904 4.43084 12.8583 4.412C12.8127 4.39315 12.7638 4.38349 12.7145 4.38355H12.7141C12.6647 4.38352 12.6159 4.39328 12.5703 4.41226C12.5247 4.43124 12.4834 4.45906 12.4486 4.49412C12.2271 4.71426 11.9459 4.86457 11.6399 4.92644C11.3338 4.98831 11.0163 4.95901 10.7267 4.84216C10.7267 4.84143 10.7263 4.84143 10.7259 4.84143C10.4373 4.72545 10.1901 4.52565 10.0162 4.26781C9.84219 4.00997 9.74948 3.70592 9.74998 3.39489C9.74998 3.16859 9.58189 3.00012 9.375 3.00012H8.62498C8.52559 3.00026 8.43031 3.03979 8.36002 3.11006C8.28973 3.18033 8.25017 3.2756 8.25 3.37499C8.25219 3.68652 8.16194 3.9917 7.99067 4.25193C7.8194 4.51216 7.5748 4.71576 7.28781 4.83696C7.00082 4.95817 6.68434 4.99154 6.37838 4.93286C6.07242 4.87418 5.79073 4.72609 5.56895 4.5073C5.40674 4.34396 5.16796 4.34396 5.02185 4.4912L4.4912 5.02206C4.42088 5.09236 4.38135 5.1877 4.38128 5.28713C4.38122 5.38657 4.42062 5.48196 4.49085 5.55236C4.71411 5.77057 4.8671 6.05051 4.93019 6.35626C4.99328 6.66201 4.96359 6.97964 4.84494 7.2684C4.8246 7.31815 4.79894 7.36554 4.76841 7.40977C4.47253 7.93929 3.95141 8.25 3.39587 8.25C3.16809 8.25 2.99998 8.41843 2.99998 8.62498V9.375C3.00012 9.47441 3.03967 9.56971 3.10997 9.64001C3.18027 9.7103 3.27558 9.74985 3.37499 9.74998C3.68525 9.7465 3.98953 9.83548 4.24904 10.0056C4.50855 10.1757 4.71154 10.4192 4.83214 10.7051C4.83362 10.708 4.83506 10.7117 4.83654 10.7153C4.84311 10.7307 4.84937 10.7461 4.85486 10.7622C5.07986 11.3166 4.94348 12.0022 4.50364 12.4394C4.46618 12.4748 4.43623 12.5173 4.41559 12.5645C4.39495 12.6117 4.38406 12.6626 4.38355 12.7141C4.3833 12.7635 4.39288 12.8124 4.41174 12.8581C4.4306 12.9037 4.45835 12.9451 4.49338 12.98L5.02259 13.5095C5.09306 13.5798 5.18854 13.6191 5.28805 13.619C5.38755 13.6189 5.48292 13.5792 5.5532 13.5088C6.01206 13.0517 6.67307 12.9164 7.25353 13.1492ZM14.5514 6.71996C14.5525 6.72288 14.5532 6.72436 14.5532 6.72436C14.5532 6.72436 14.5512 6.71996 14.5514 6.71996Z" fill="#EF400F"/>
</svg>
